<svg xmlns="http://www.w3.org/2000/svg" width="2400" height="1600" viewBox="0 0 2400 1600">
  <rect width="100%" height="100%" fill="#ffffff"/>
  <g font-family="system-ui,-apple-system,Segoe UI,Roboto,Arial" fill="#111" font-size="48">
    <text x="1200" y="120" text-anchor="middle" font-size="92" font-weight="700">Paleta de colores corporativos</text>
    <g transform="translate(120,220)">
      <rect x="0" y="0" width="380" height="380" rx="40" fill="#A78BFA"/>
      <text x="190" y="430" text-anchor="middle" font-weight="700">Primario</text>
      <text x="190" y="480" text-anchor="middle">HEX #A78BFA</text>
      <text x="190" y="530" text-anchor="middle">RGB 167, 139, 250</text>
      <text x="190" y="580" text-anchor="middle">Uso recomendado 40%</text>
    </g>
    <g transform="translate(520,220)">
      <rect x="0" y="0" width="380" height="380" rx="40" fill="#0EA5A4"/>
      <text x="190" y="430" text-anchor="middle" font-weight="700">Teal</text>
      <text x="190" y="480" text-anchor="middle">HEX #0EA5A4</text>
      <text x="190" y="530" text-anchor="middle">RGB 14, 165, 164</text>
      <text x="190" y="580" text-anchor="middle">Uso recomendado 25%</text>
    </g>
    <g transform="translate(920,220)">
      <rect x="0" y="0" width="380" height="380" rx="40" fill="#A7F3D0"/>
      <text x="190" y="430" text-anchor="middle" font-weight="700">Mint</text>
      <text x="190" y="480" text-anchor="middle">HEX #A7F3D0</text>
      <text x="190" y="530" text-anchor="middle">RGB 167, 243, 208</text>
      <text x="190" y="580" text-anchor="middle">Uso recomendado 15%</text>
    </g>
    <g transform="translate(1320,220)">
      <rect x="0" y="0" width="380" height="380" rx="40" fill="#0F766E"/>
      <text x="190" y="430" text-anchor="middle" font-weight="700">Profundo</text>
      <text x="190" y="480" text-anchor="middle">HEX #0F766E</text>
      <text x="190" y="530" text-anchor="middle">RGB 15, 118, 110</text>
      <text x="190" y="580" text-anchor="middle">Uso recomendado 10%</text>
    </g>
    <g transform="translate(1720,220)">
      <rect x="0" y="0" width="380" height="380" rx="40" fill="#6B7280"/>
      <text x="190" y="430" text-anchor="middle" font-weight="700">Neutro</text>
      <text x="190" y="480" text-anchor="middle">HEX #6B7280</text>
      <text x="190" y="530" text-anchor="middle">RGB 107, 114, 128</text>
      <text x="190" y="580" text-anchor="middle">Uso recomendado 10%</text>
    </g>
    <g transform="translate(120,820)">
      <text x="0" y="0" font-size="72" font-weight="700">Combinaciones aprobadas</text>
      <g transform="translate(0,60)">
        <rect x="0" y="0" width="520" height="140" rx="20" fill="#A78BFA"/>
        <rect x="540" y="0" width="520" height="140" rx="20" fill="#6B7280"/>
        <text x="1080" y="92">Primario + Neutro</text>
      </g>
      <g transform="translate(0,240)">
        <rect x="0" y="0" width="520" height="140" rx="20" fill="#0EA5A4"/>
        <rect x="540" y="0" width="520" height="140" rx="20" fill="#A7F3D0"/>
        <text x="1080" y="92">Teal + Mint</text>
      </g>
      <g transform="translate(0,420)">
        <rect x="0" y="0" width="520" height="140" rx="20" fill="#A78BFA"/>
        <rect x="540" y="0" width="520" height="140" rx="20" fill="#0F766E"/>
        <text x="1080" y="92">Primario + Profundo</text>
      </g>
    </g>
    <g transform="translate(120,1420)">
      <text x="0" y="0">Contraste mínimo recomendado: texto #111 sobre fondos claros; texto #fff sobre fondos primario/teal/profundo.</text>
    </g>
  </g>
</svg>
